<svg width="100" height="100" viewBox="0 0 100 100">
    <g id='ornament'>
        <g id="ornament-loop">
            <circle cx="50" cy="32.5" r="6.75" fill="none" stroke="#F79257" />
        </g>
        <g id="ornament-body">
            <circle cx="50" cy="65" r="25" fill="#D1495B" />
        </g>
        <g id="ornament-cap">
            <rect x="42.5" y="35" width="15" height="7.5" fill="#F79257" />
        </g>
    </g>
    <g id='tree'>
        <polygon points="0,45 15,15 30,45" fill="#234236" />
        <polygon points="1,37.5 15,15 29,37.5" fill="#0C5C4C" />
        <polygon points="3,30 15,12.5 27,30" fill="#38755B" />
        <rect x="10" y="46" width="10" height="7.5" fill="brown" />
    </g>

    <g id='gingerbread-man'>
        <circle class="head" cx="75" cy="10" r="5" fill="#cd803d" />
        <rect class="mouth" x="73" y="10.5" width="4" height="0.75" rx="1" fill="none" stroke="white"
            stroke-width="0.25px" />
        <line class="limb" x1="65" x2="85" y1="20" y2="15" stroke="#cd803d" stroke-width="7px" stroke-linecap="round" />
        <line class="limb" x1="70" x2="75" y1="30" y2="17.5" stroke="#cd803d" stroke-width="7px"
            stroke-linecap="round" />

        <line class="limb" x1="75" x2="82.5" y1="17.5" y2="30" stroke="#cd803d" stroke-width="7px"
            stroke-linecap="round" />


        <circle class="eye" cx="72.5" cy="8" r="1" fill="white" />
        <circle class="eye" cx="77.5" cy="8" r="1" fill="white" />
        <circle class="button" cx="75" cy="16" r="1" />
        <circle class="button" cx="75" cy="21" r="1" />

    </g>

</svg>