<svg width="100" height="100" viewBox="0 0 100 100">

    <style type="text/css">
        .eye {
            fill: white;
            r: 0.7;
        }

        .mouth {
            fill: none;
            stroke: white;
            stroke-width: 0.25px;
        }

        .head {
            fill: #cd803d;
        }

        .button {
            fill: #444;
        }

        .limb {
            stroke: #cd803d;
            stroke-width: 7px;
            stroke-linecap: round;
        }

        .wall {
            stroke: black;
            fill: white
        }

        .roof {
            fill: none;
            stroke: red;
            stroke-width: 1.5px;
            stroke-linecap: round;
        }

        .window {
            fill: yellow;
            stroke: black;
            stroke-width: 0.5px;
        }

        .borders {
            stroke: black;
            stroke-width: 0.5px;
        }

        .door {
            stroke: black;
            stroke-width: 0.45px;
            fill: brown;
        }

        .knob {
            fill: #cd803d;
            stroke: black;
            stroke-width: 0.25px;
        }

        .stair {
            fill: #444;
            stroke: black;
            stroke-width: 0.15px;
        }
    </style>
    <defs>
        <clipPath id="ornament-clip-path">
            <circle cx="50" cy="65" r="25" />
        </clipPath>
    </defs>

    <g id='ornament'>
        <g id="ornament-loop">
            <circle cx="50" cy="32.5" r="6.75" fill="none" stroke="#F79257" />
        </g>
        <g id="ornament-body">
            <circle cx="50" cy="65" r="25" fill="#D1495B" />
        </g>
        <g id="ornament-cap">
            <rect x="42.5" y="35" width="15" height="7.5" fill="#F79257" />
        </g>


        <polyline clip-path="url(#ornament-clip-path)" points="10,60 30,75 50,60 70,75 90, 60" fill="none"
            stroke="#9C2D2A" stroke-width="20" />

    </g>
    <g id='tree'>
        <polygon points="0,45 15,15 30,45" fill="#234236" />
        <polygon points="1,37.5 15,15 29,37.5" fill="#0C5C4C" />
        <polygon points="3,30 15,12.5 27,30" fill="#38755B" />
        <rect x="10" y="46" width="10" height="7.5" fill="brown" />
    </g>

    <g id='gingerbread-man'>
        <circle class="head" cx="75" cy="10" r="5" />
        <rect class="mouth" x="73" y="10.5" width="4" height="0.75" rx="1" />
        <line class="limb" x1="65" x2="85" y1="20" y2="15" />
        <line class="limb" x1="70" x2="75" y1="30" y2="17.5" />

        <line class="limb" x1="75" x2="82.5" y1="17.5" y2="30" />


        <circle class="eye" cx="72.5" cy="8" />
        <circle class="eye" cx="77.5" cy="8" />
        <circle class="button" cx="75" cy="16" r="1" />
        <circle class="button" cx="75" cy="21" r="1" />

    </g>

    <g id="full-house">
        <polygon class="wall" points="45,5 50,10 50,20 40,20 40,10" />
        <polyline class="roof" points="39,9 45,3 51,9" />
        <rect class="window" width="4" height="4" x="45" y="12" rx="1" />
        <line class="borders" x1="45" x2="49" y1="14" y2="14" />
        <line class="borders" x1="47" x2="47" y1="12" y2="16" />
        <rect class="door" width="2.5" height="7" x="41.5" y="12" rx="0.5" />
        <circle class="knob" cx="43" cy="15.5" r=".5" />
        <rect width="3.5" height="0.5" x="41" y="19" />
    </g>

    <g id="paths-1" transform="rotate(0 0 0) translate(10, 5)">
        <path id="arrow1" d="
        M 25, 15
        L 30, 10
        M 20, 10
        L 30, 10
        M 25, 5
        L 30, 10
        " 
        stroke="yellow" 
        stroke-width="2" 
        stroke-linecap="round"
        stroke-linejoin="round"
        />

    </g>
    <g id="paths-2" transform="rotate(30 0 0) translate(10, 5)">
        <path id="arrow2" d="
        M 25, 15
        L 30, 10
        M 20, 10
        L 30, 10
        M 25, 5
        L 30, 10
        " 
        stroke="yellow" 
        stroke-width="2" 
        stroke-linecap="round"
        stroke-linejoin="round"
        />

    </g>
        <g id="paths-3" transform="rotate(60 0 0) translate(10, 5)">
        <path id="arrow3" d="
        M 25, 15
        L 30, 10
        M 20, 10
        L 30, 10
        M 25, 5
        L 30, 10
        " 
        stroke="yellow" 
        stroke-width="2" 
        stroke-linecap="round"
        stroke-linejoin="round"
        />

    </g>

    <g id="path-variables">
        <!-- <line x1="75" x2="75" y1="0" y2="20" stroke="red" /> -->
        <use href="#arrow1" transform="translate(55,10) rotate(-15 75 20)" />
        <use href="#arrow1" transform="translate(55,10) rotate(-30 75 20)" />
        <use href="#arrow1" transform="translate(55,10) rotate(-45 75 20)" />
        </g>

</svg>